<svg width="72" height="93" viewBox="0 0 72 93" fill="none" xmlns="http://www.w3.org/2000/svg">
<path d="M9.35285 74.5387C9.85947 74.5387 10.3046 74.6281 10.6883 74.8069C11.072 74.982 11.4036 75.2204 11.6829 75.5221C11.9623 75.8201 12.1951 76.1666 12.3814 76.5614C12.5714 76.9526 12.7223 77.3642 12.834 77.7963C12.9458 78.2247 13.024 78.6606 13.0687 79.1039C13.1171 79.5434 13.1413 79.9607 13.1413 80.3555C13.1413 80.702 13.119 81.0335 13.0743 81.3501C13.0296 81.6668 12.9812 81.9499 12.929 82.1995C12.8657 82.49 12.7949 82.7638 12.7167 83.0209L11.0236 82.7191C11.1316 82.4621 11.2322 82.1697 11.3253 81.8419C11.4222 81.514 11.5079 81.1788 11.5824 80.8361C11.1316 80.7951 10.6809 80.769 10.2301 80.7578C9.7831 80.7467 9.33795 80.7411 8.89465 80.7411C8.54821 80.7411 8.20177 80.7429 7.85533 80.7467C7.50889 80.7504 7.16059 80.7634 6.81042 80.7858C6.88493 81.1024 6.97247 81.4191 7.07305 81.7357C7.17363 82.0523 7.28911 82.3764 7.41949 82.708L5.65376 83.0321C5.5718 82.8607 5.4973 82.6614 5.43025 82.4342C5.37437 82.2405 5.32222 82.0058 5.27379 81.7301C5.22909 81.4507 5.20674 81.1359 5.20674 80.7858C5.20674 80.3276 5.22536 79.8563 5.26262 79.3721C5.30359 78.8841 5.37623 78.4091 5.48054 77.9472C5.58857 77.4853 5.73757 77.0476 5.92756 76.6341C6.12127 76.2206 6.37085 75.8592 6.67632 75.5501C6.9855 75.2371 7.35802 74.9913 7.79387 74.8125C8.23344 74.6299 8.7531 74.5387 9.35285 74.5387ZM6.57015 78.5116C6.57015 78.8208 6.58132 79.1206 6.60368 79.4112C6.62603 79.698 6.66142 79.9811 6.70984 80.2605C7.08236 80.2829 7.45301 80.2959 7.8218 80.2996C8.19432 80.3034 8.57056 80.3052 8.95053 80.3052C9.40127 80.3052 9.85388 80.3034 10.3084 80.2996C10.7665 80.2922 11.2266 80.2717 11.6885 80.2382C11.7556 79.8247 11.7891 79.4354 11.7891 79.0703C11.7891 78.8059 11.7686 78.5246 11.7276 78.2266C11.6904 77.9286 11.6289 77.6343 11.5432 77.3437C11.4576 77.0494 11.3458 76.7682 11.208 76.5C11.0739 76.2318 10.9081 75.9971 10.7107 75.7959C10.5132 75.591 10.2841 75.429 10.0234 75.3098C9.76634 75.1869 9.47392 75.1254 9.1461 75.1254C8.84436 75.1254 8.57243 75.1738 8.33029 75.2707C8.08815 75.3675 7.87023 75.4998 7.67652 75.6674C7.48654 75.835 7.32077 76.0306 7.17921 76.2541C7.04138 76.4739 6.92776 76.7104 6.83836 76.9638C6.74896 77.2133 6.6819 77.4704 6.6372 77.7349C6.5925 77.9994 6.57015 78.2583 6.57015 78.5116ZM22.4449 74.8851C22.4449 74.8851 22.4449 74.9596 22.4449 75.1086C22.4449 75.2576 22.4412 75.4625 22.4338 75.7233C22.43 75.984 22.4226 76.2914 22.4114 76.6453C22.4002 76.9954 22.3835 77.3754 22.3611 77.7852C22.3425 78.1949 22.3183 78.6215 22.2885 79.0648C22.2587 79.508 22.2196 79.9513 22.1711 80.3946C22.1264 80.8342 22.0743 81.2645 22.0147 81.6854C21.9551 82.1026 21.8843 82.49 21.8024 82.8477L20.7351 82.8924C20.5488 82.613 20.3402 82.2963 20.1093 81.9424C19.8783 81.5886 19.6362 81.2179 19.3829 80.8305C19.1333 80.4393 18.8781 80.0426 18.6173 79.6403C18.3603 79.2342 18.1126 78.8412 17.8742 78.4613C17.3117 77.571 16.7324 76.6527 16.1364 75.7065C16.1177 76.7198 16.1047 77.6846 16.0973 78.601C16.0935 78.9921 16.0917 79.3907 16.0917 79.7967C16.0917 80.2028 16.0917 80.5939 16.0917 80.9702C16.0954 81.3464 16.101 81.6966 16.1084 82.0207C16.1196 82.3448 16.1326 82.6204 16.1475 82.8477L14.9574 82.9985C14.8978 82.6856 14.8475 82.3299 14.8065 81.9313C14.7655 81.5327 14.7301 81.1136 14.7003 80.674C14.6742 80.2345 14.6538 79.7874 14.6389 79.333C14.624 78.8748 14.6128 78.4296 14.6053 77.9975C14.5904 76.988 14.5904 75.9468 14.6053 74.8739L16.8348 74.7007L20.8301 81.6351C20.8711 81.1508 20.8953 80.6312 20.9027 80.0761C20.9102 79.5174 20.9027 78.9418 20.8804 78.3495C20.8617 77.7572 20.8282 77.1575 20.7798 76.5503C20.7314 75.9431 20.6718 75.3452 20.601 74.7566L22.4449 74.8851ZM25.7138 74.7454L25.4288 82.8365L24.3001 82.8588L24.071 74.846L25.7138 74.7454ZM26.876 82.7359C26.917 82.3857 26.9729 81.9909 27.0437 81.5513C27.1182 81.1117 27.2038 80.6517 27.3007 80.1711C27.4013 79.6869 27.5093 79.1951 27.6248 78.696C27.744 78.1931 27.8688 77.7051 27.9992 77.232C28.1333 76.7551 28.2711 76.3044 28.4127 75.8797C28.5542 75.4551 28.6976 75.077 28.8429 74.7454L30.1337 74.6672C30.2454 74.8833 30.3646 75.1347 30.4913 75.4215C30.6217 75.7084 30.7558 76.0176 30.8936 76.3491C31.0352 76.6769 31.1786 77.0215 31.3239 77.3828C31.4692 77.7442 31.6126 78.1111 31.7541 78.4836C31.8957 78.8524 32.0335 79.2193 32.1676 79.5844C32.3017 79.9495 32.4284 80.3015 32.5476 80.6405C32.6221 80.2531 32.7115 79.821 32.8158 79.3441C32.9201 78.8636 33.0374 78.3663 33.1678 77.8522C33.3019 77.3344 33.4472 76.811 33.6037 76.2821C33.7601 75.7494 33.9278 75.2371 34.1066 74.7454L35.6264 74.6672C35.8499 75.2595 36.0902 75.9524 36.3473 76.7458C36.567 77.4275 36.8166 78.2583 37.096 79.238C37.3791 80.2177 37.6716 81.3408 37.9733 82.6074L36.0288 83.0097C36.025 82.8532 36.012 82.6558 35.9896 82.4174C35.971 82.1753 35.9431 81.9071 35.9058 81.6128C35.8723 81.3185 35.8313 81.0037 35.7829 80.6684C35.7345 80.3294 35.6805 79.983 35.6209 79.6291C35.565 79.2752 35.5016 78.9195 35.4309 78.5619C35.3638 78.2005 35.2912 77.8522 35.2129 77.5169C35.1384 77.178 35.0584 76.8576 34.9727 76.5559C34.8907 76.2504 34.8069 75.9747 34.7212 75.7289C34.5908 76.0902 34.4679 76.4627 34.3524 76.8464C34.237 77.2264 34.1289 77.6063 34.0283 77.9863C33.9315 78.3663 33.8402 78.7388 33.7545 79.1039C33.6726 79.4689 33.5981 79.8135 33.531 80.1376C33.3746 80.9013 33.2386 81.6482 33.1231 82.3783L31.7932 82.5515C31.7932 82.5552 31.7616 82.4621 31.6983 82.2721C31.6387 82.0784 31.553 81.8195 31.4412 81.4954C31.3295 81.1676 31.1972 80.7858 31.0445 80.3499C30.8918 79.9141 30.726 79.454 30.5472 78.9698C30.3684 78.4855 30.1784 77.9882 29.9772 77.4778C29.7798 76.9675 29.5805 76.4758 29.3793 76.0027C29.2229 76.4944 29.0888 77.0252 28.977 77.5952C28.8653 78.1651 28.7703 78.7537 28.692 79.3609C28.6175 79.9681 28.5561 80.5828 28.5076 81.2049C28.4592 81.8232 28.422 82.4248 28.3959 83.0097L26.876 82.7359ZM47.6289 78.8189C47.6289 79.2473 47.5749 79.6533 47.4669 80.037C47.3589 80.417 47.2061 80.769 47.0087 81.0931C46.8113 81.4172 46.5747 81.7078 46.299 81.9648C46.0234 82.2218 45.7179 82.4398 45.3827 82.6186C45.0474 82.7974 44.6879 82.9352 44.3042 83.0321C43.9205 83.1289 43.5219 83.1773 43.1084 83.1773C42.464 83.1773 41.8698 83.073 41.3259 82.8644C40.7858 82.6595 40.3183 82.3671 39.9234 81.9871C39.5323 81.6072 39.2268 81.149 39.007 80.6126C38.7872 80.0761 38.6774 79.4782 38.6774 78.8189C38.6774 78.3979 38.7295 77.9975 38.8338 77.6175C38.9381 77.2376 39.0853 76.8874 39.2752 76.567C39.4652 76.2429 39.6943 75.9505 39.9625 75.6898C40.2307 75.429 40.5288 75.2092 40.8566 75.0304C41.1881 74.8479 41.542 74.7082 41.9182 74.6113C42.2982 74.5107 42.6949 74.4604 43.1084 74.4604C43.5219 74.4604 43.9205 74.5089 44.3042 74.6057C44.6916 74.6989 45.053 74.8348 45.3882 75.0136C45.7235 75.1924 46.029 75.4104 46.3046 75.6674C46.5803 75.9244 46.815 76.215 47.0087 76.5391C47.2061 76.8632 47.3589 77.2171 47.4669 77.6008C47.5749 77.9807 47.6289 78.3868 47.6289 78.8189ZM46.0923 78.8189C46.0923 78.5246 46.0662 78.2266 46.0141 77.9249C45.9656 77.6194 45.8893 77.327 45.785 77.0476C45.6807 76.7645 45.5484 76.5 45.3882 76.2541C45.2318 76.0045 45.0437 75.7885 44.8239 75.6059C44.6078 75.4197 44.362 75.2744 44.0863 75.1701C43.8106 75.0621 43.5033 75.008 43.1643 75.008C42.8253 75.008 42.518 75.0621 42.2423 75.1701C41.9667 75.2781 41.7208 75.4253 41.5048 75.6115C41.2887 75.7941 41.1006 76.0101 40.9404 76.2597C40.7802 76.5056 40.648 76.77 40.5437 77.0532C40.4394 77.3363 40.3611 77.6287 40.309 77.9304C40.2605 78.2322 40.2363 78.5283 40.2363 78.8189C40.2363 79.1281 40.2587 79.4373 40.3034 79.7465C40.3481 80.0556 40.4189 80.3518 40.5157 80.6349C40.6126 80.9143 40.7374 81.1769 40.8901 81.4228C41.0466 81.6649 41.2328 81.8754 41.4489 82.0542C41.6649 82.233 41.9145 82.3746 42.1976 82.4789C42.4845 82.5794 42.8067 82.6297 43.1643 82.6297C43.5108 82.6297 43.8237 82.5776 44.1031 82.4733C44.3824 82.369 44.6302 82.2256 44.8462 82.043C45.066 81.8605 45.2541 81.6482 45.4106 81.406C45.567 81.1602 45.6956 80.8957 45.7961 80.6126C45.8967 80.3294 45.9712 80.0352 46.0197 79.7297C46.0681 79.4242 46.0923 79.1206 46.0923 78.8189ZM57.5528 78.8189C57.5528 79.2473 57.4987 79.6533 57.3907 80.037C57.2827 80.417 57.13 80.769 56.9325 81.0931C56.7351 81.4172 56.4985 81.7078 56.2229 81.9648C55.9472 82.2218 55.6418 82.4398 55.3065 82.6186C54.9712 82.7974 54.6117 82.9352 54.2281 83.0321C53.8444 83.1289 53.4458 83.1773 53.0323 83.1773C52.3878 83.1773 51.7937 83.073 51.2498 82.8644C50.7096 82.6595 50.2421 82.3671 49.8473 81.9871C49.4561 81.6072 49.1507 81.149 48.9309 80.6126C48.7111 80.0761 48.6012 79.4782 48.6012 78.8189C48.6012 78.3979 48.6533 77.9975 48.7576 77.6175C48.8619 77.2376 49.0091 76.8874 49.1991 76.567C49.3891 76.2429 49.6182 75.9505 49.8864 75.6898C50.1546 75.429 50.4526 75.2092 50.7804 75.0304C51.1119 74.8479 51.4658 74.7082 51.8421 74.6113C52.222 74.5107 52.6188 74.4604 53.0323 74.4604C53.4458 74.4604 53.8444 74.5089 54.2281 74.6057C54.6155 74.6989 54.9768 74.8348 55.3121 75.0136C55.6473 75.1924 55.9528 75.4104 56.2285 75.6674C56.5041 75.9244 56.7388 76.215 56.9325 76.5391C57.13 76.8632 57.2827 77.2171 57.3907 77.6008C57.4987 77.9807 57.5528 78.3868 57.5528 78.8189ZM56.0161 78.8189C56.0161 78.5246 55.9901 78.2266 55.9379 77.9249C55.8895 77.6194 55.8131 77.327 55.7088 77.0476C55.6045 76.7645 55.4723 76.5 55.3121 76.2541C55.1556 76.0045 54.9675 75.7885 54.7477 75.6059C54.5317 75.4197 54.2858 75.2744 54.0101 75.1701C53.7345 75.0621 53.4271 75.008 53.0882 75.008C52.7492 75.008 52.4418 75.0621 52.1662 75.1701C51.8905 75.2781 51.6446 75.4253 51.4286 75.6115C51.2125 75.7941 51.0244 76.0101 50.8642 76.2597C50.704 76.5056 50.5718 76.77 50.4675 77.0532C50.3632 77.3363 50.285 77.6287 50.2328 77.9304C50.1844 78.2322 50.1602 78.5283 50.1602 78.8189C50.1602 79.1281 50.1825 79.4373 50.2272 79.7465C50.2719 80.0556 50.3427 80.3518 50.4396 80.6349C50.5364 80.9143 50.6612 81.1769 50.8139 81.4228C50.9704 81.6649 51.1567 81.8754 51.3727 82.0542C51.5888 82.233 51.8384 82.3746 52.1215 82.4789C52.4083 82.5794 52.7305 82.6297 53.0882 82.6297C53.4346 82.6297 53.7475 82.5776 54.0269 82.4733C54.3063 82.369 54.554 82.2256 54.7701 82.043C54.9898 81.8605 55.178 81.6482 55.3344 81.406C55.4909 81.1602 55.6194 80.8957 55.72 80.6126C55.8206 80.3294 55.8951 80.0352 55.9435 79.7297C55.9919 79.4242 56.0161 79.1206 56.0161 78.8189ZM67.4766 78.8189C67.4766 79.2473 67.4226 79.6533 67.3146 80.037C67.2065 80.417 67.0538 80.769 66.8564 81.0931C66.6589 81.4172 66.4224 81.7078 66.1467 81.9648C65.8711 82.2218 65.5656 82.4398 65.2303 82.6186C64.8951 82.7974 64.5356 82.9352 64.1519 83.0321C63.7682 83.1289 63.3696 83.1773 62.9561 83.1773C62.3117 83.1773 61.7175 83.073 61.1736 82.8644C60.6335 82.6595 60.166 82.3671 59.7711 81.9871C59.38 81.6072 59.0745 81.149 58.8547 80.6126C58.6349 80.0761 58.525 79.4782 58.525 78.8189C58.525 78.3979 58.5772 77.9975 58.6815 77.6175C58.7858 77.2376 58.9329 76.8874 59.1229 76.567C59.3129 76.2429 59.542 75.9505 59.8102 75.6898C60.0784 75.429 60.3764 75.2092 60.7043 75.0304C61.0358 74.8479 61.3897 74.7082 61.7659 74.6113C62.1459 74.5107 62.5426 74.4604 62.9561 74.4604C63.3696 74.4604 63.7682 74.5089 64.1519 74.6057C64.5393 74.6989 64.9007 74.8348 65.2359 75.0136C65.5712 75.1924 65.8766 75.4104 66.1523 75.6674C66.428 75.9244 66.6627 76.215 66.8564 76.5391C67.0538 76.8632 67.2065 77.2171 67.3146 77.6008C67.4226 77.9807 67.4766 78.3868 67.4766 78.8189ZM65.94 78.8189C65.94 78.5246 65.9139 78.2266 65.8617 77.9249C65.8133 77.6194 65.737 77.327 65.6326 77.0476C65.5283 76.7645 65.3961 76.5 65.2359 76.2541C65.0795 76.0045 64.8913 75.7885 64.6716 75.6059C64.4555 75.4197 64.2096 75.2744 63.934 75.1701C63.6583 75.0621 63.351 75.008 63.012 75.008C62.673 75.008 62.3657 75.0621 62.09 75.1701C61.8144 75.2781 61.5685 75.4253 61.3524 75.6115C61.1364 75.7941 60.9483 76.0101 60.7881 76.2597C60.6279 76.5056 60.4956 76.77 60.3913 77.0532C60.287 77.3363 60.2088 77.6287 60.1567 77.9304C60.1082 78.2322 60.084 78.5283 60.084 78.8189C60.084 79.1281 60.1064 79.4373 60.1511 79.7465C60.1958 80.0556 60.2665 80.3518 60.3634 80.6349C60.4603 80.9143 60.585 81.1769 60.7378 81.4228C60.8942 81.6649 61.0805 81.8754 61.2966 82.0542C61.5126 82.233 61.7622 82.3746 62.0453 82.4789C62.3322 82.5794 62.6544 82.6297 63.012 82.6297C63.3584 82.6297 63.6713 82.5776 63.9507 82.4733C64.2301 82.369 64.4778 82.2256 64.6939 82.043C64.9137 81.8605 65.1018 81.6482 65.2583 81.406C65.4147 81.1602 65.5432 80.8957 65.6438 80.6126C65.7444 80.3294 65.8189 80.0352 65.8673 79.7297C65.9158 79.4242 65.94 79.1206 65.94 78.8189Z" fill="#04332D"/>
<g clip-path="url(#clip0_1_461)">
<path d="M61.946 59.1438C75.1241 45.9669 75.1241 24.6029 61.946 11.426C48.7679 -1.75095 27.4019 -1.75094 14.2238 11.426C1.04565 24.6029 1.04565 45.9669 14.2238 59.1438C27.4019 72.3208 48.7679 72.3208 61.946 59.1438Z" fill="#1B293B"/>
<path d="M58.2917 55.4899C69.4516 44.331 69.4516 26.2388 58.2917 15.0799C47.1318 3.92105 29.038 3.92106 17.8781 15.0799C6.71816 26.2388 6.71816 44.331 17.8781 55.4899C29.038 66.6488 47.1318 66.6488 58.2917 55.4899Z" fill="#C9AE5B"/>
<path d="M38.084 6.70971C43.7363 6.70971 49.2617 8.38566 53.9614 11.5256C58.6612 14.6656 62.3242 19.1285 64.4872 24.3501C66.6502 29.5717 67.2162 35.3174 66.1135 40.8606C65.0108 46.4038 62.2889 51.4955 58.2921 55.4919C54.2954 59.4883 49.2031 62.2099 43.6594 63.3125C38.1157 64.4152 32.3695 63.8493 27.1475 61.6864C21.9254 59.5236 17.4621 55.8609 14.3218 51.1616C11.1816 46.4623 9.50547 40.9375 9.50547 35.2857C9.50523 31.533 10.2443 27.8169 11.6804 24.3498C13.1165 20.8827 15.2216 17.7325 17.8754 15.0789C20.5292 12.4253 23.6798 10.3204 27.1472 8.88444C30.6146 7.44845 34.331 6.70947 38.084 6.70971ZM38.084 6.16346C32.3247 6.16401 26.6948 7.87206 21.9061 11.0717C17.1175 14.2713 13.3851 18.8187 11.181 24.1391C8.97678 29.4596 8.39975 35.314 9.52282 40.9623C10.6459 46.6106 13.4186 51.7991 17.4905 55.8719C22.9692 61.2478 30.3489 64.2436 38.0249 64.2077C45.7009 64.1718 53.0523 61.1071 58.4805 55.6802C63.9086 50.2533 66.9745 42.9029 67.0114 35.2277C67.0483 27.5524 64.0533 20.1729 58.6776 14.694C55.9796 11.9812 52.7702 9.83042 49.2354 8.36615C45.7005 6.90188 41.9102 6.15321 38.084 6.16346Z" fill="#E2D8A7"/>
<mask id="mask0_1_461" style="mask-type:luminance" maskUnits="userSpaceOnUse" x="0" y="4" width="67" height="60">
<path d="M66.6608 35.2857C66.6568 40.6069 65.1675 45.8214 62.3605 50.3422C59.5536 54.8631 55.5404 58.5108 50.7727 60.8748C46.005 63.2389 40.6721 64.2254 35.3741 63.7234C30.0761 63.2213 25.0234 61.2507 20.7847 58.0332C20.7847 58.0332 13.2586 62.9895 9.14679 59.59C-0.364226 51.7259 0.18207 25.2548 0.18207 19.1769C0.18207 10.8448 8.24358 5.29677 16.3889 4.3117C23.6728 3.43225 30.6344 6.70972 38.0841 6.70972C41.837 6.70972 45.5531 7.44888 49.0204 8.88498C52.4876 10.3211 55.6379 12.426 58.2915 15.0795C60.9452 17.7331 63.0501 20.8833 64.4861 24.3503C65.9221 27.8173 66.6611 31.5331 66.6608 35.2857Z" fill="white"/>
</mask>
<g mask="url(#mask0_1_461)">
<path d="M27.2529 52.9094C27.2529 52.9094 24.4959 60.4294 17.7255 63.8598C17.7255 63.8598 22.2087 71.5291 39.4298 73.328C56.6509 75.127 66.5152 59.8194 71.5083 51.267C71.5083 51.267 69.019 42.4925 62.7403 35.2237C55.4235 26.7533 51.3973 25.0272 45.4008 24.1568L27.2529 52.9094Z" fill="#1B293B"/>
<path d="M68.7186 51.2506C68.7186 51.2506 68.2907 52.0135 67.4894 53.2408C64.8654 57.2557 58.2443 66.2542 49.4343 69.8649C47.6218 70.6316 45.6957 71.096 43.7328 71.2396C27.7464 72.2774 23.6492 65.2764 23.6492 65.2764C23.6492 65.2764 28.7862 58.827 29.6366 53.7306C29.9298 52.0281 25.0295 49.7812 24.5924 48.4775C24.5924 48.4775 28.5458 45.3402 33.1693 41.3763C36.8695 38.2008 40.9995 34.4991 43.8749 31.4528C45.6376 29.581 46.9287 27.955 47.3712 26.8498C47.3712 26.8498 49.3743 27.4215 52.1458 28.9729C55.3536 30.7651 58.2181 33.1121 60.6061 35.9047C66.5407 42.8712 68.7186 51.2506 68.7186 51.2506Z" fill="#838891"/>
<path d="M68.7186 51.2506C68.7186 51.2506 68.2906 52.0135 67.4894 53.2408C64.6213 42.0846 55.5546 35.6389 55.5546 35.6389C58.2078 37.0318 61.6823 39.754 61.6823 39.754C58.1186 34.3261 50.8674 29.7394 50.8674 29.7394L52.1421 28.9802C55.3499 30.7724 58.2144 33.1194 60.6024 35.912C66.5407 42.8712 68.7186 51.2506 68.7186 51.2506Z" fill="white"/>
<path d="M49.4325 69.8722C47.6199 70.6389 45.6939 71.1033 43.731 71.2469C27.7446 72.2847 24.8346 64.6664 24.8346 64.6664C24.8346 64.6664 28.2053 61.1268 29.0557 53.716C27.1436 55.149 19.8397 56.582 14.7045 56.531C10.762 56.4873 10.0409 52.822 9.42362 51.3617C9.18913 50.7641 9.02119 50.1425 8.92285 49.5081L13.8104 47.0409C16.5145 47.2066 18.8727 45.0089 19.6266 42.1611C20.3805 39.3133 21.0361 36.979 22.9827 33.6196C22.9827 33.6196 23.6109 34.53 23.4598 35.0071C23.2977 35.5242 23.7457 36.2125 24.6635 35.0362C25.7415 33.6506 29.1704 29.0275 31.8727 28.2537C31.7908 28.3028 31.3119 29.754 31.3119 29.754C32.6048 29.2915 34.8592 30.0763 34.8592 30.0763C32.6539 30.4532 31.3519 32.2759 31.7762 32.2795C31.7762 32.2795 32.8306 35.4004 31.5723 37.7638C30.0062 40.7026 23.5927 41.4182 21.2946 43.5358C18.8691 45.7736 17.1974 47.3814 17.2065 48.3901C17.2156 49.3988 18.9729 49.7958 18.9729 49.7958C18.9729 49.7958 22.7205 49.6519 26.2004 46.2707C29.6803 42.8894 31.7125 42.2867 31.7125 42.2867C31.7125 42.2867 32.2096 42.5271 33.4188 43.1462C35.0923 43.9928 37.496 43.4466 39.1658 42.4524C42.0939 40.7081 42.0393 37.0391 42.0211 36.7897C42.0721 36.857 42.826 37.8457 43.5744 39.7248C44.9584 43.1953 47.1344 48.4429 41.331 68.4264C41.331 68.4264 49.7712 62.5233 49.5909 44.9542C49.5909 44.9542 53.6099 61.429 49.4325 69.8722Z" fill="#50535A"/>
<path d="M20.6755 32.0118C18.8217 31.6713 12.7997 30.6899 7.2202 26.2762C1.6407 21.8626 1.09258 19.0094 0.968752 18.0734C0.728382 16.4238 1.7627 15.9668 3.99523 17.0538C6.01653 18.037 13.0401 21.0833 18.8636 21.3728C24.7599 21.6641 25.6012 21.5421 25.5776 24.8323C25.5539 28.1226 25.1988 31.7515 23.4415 32.2686C21.6843 32.7857 20.6755 32.0118 20.6755 32.0118Z" fill="#1B293B"/>
<path d="M21.0396 23.4449C19.4408 23.6998 14.8374 23.0407 10.9896 21.8826C7.14186 20.7246 3.08289 18.7035 3.08289 18.7035C3.08289 18.7035 4.24832 21.9536 9.03751 25.1328C13.8267 28.3119 20.7301 29.8068 20.7301 29.8068L21.0396 23.4449Z" fill="#A59688"/>
<path d="M20.9413 25.3549L21.0342 23.4449C19.4353 23.6998 14.8319 23.0406 10.9841 21.8826C9.0985 21.2926 7.24836 20.5947 5.44287 19.7923C5.90358 20.0927 11.6543 23.8218 20.9413 25.3549Z" fill="white"/>
<path d="M18.5067 25.5916C16.509 25.6245 14.5175 25.3601 12.5976 24.8069C10.8339 24.3409 9.10321 23.7582 7.4169 23.0625C6.73319 22.7779 6.06461 22.4582 5.41382 22.1048C6.49882 23.2511 7.71513 24.2656 9.03758 25.1273C13.8268 28.3065 20.7301 29.8014 20.7301 29.8014L20.9414 25.3549C20.1355 25.4845 19.3224 25.5635 18.5067 25.5916Z" fill="#625C58"/>
<path d="M42.0138 36.7805L52.916 29.8614L37.3721 19.7668C34.7353 18.7289 30.5306 19.2205 29.4817 20.6444C29.4817 20.6444 27.5533 19.7249 24.8309 20.3531C24.0607 20.5481 23.3207 20.847 22.6312 21.2417C22.196 21.0031 21.4785 20.8174 20.4132 21.198C18.4902 21.8826 17.7327 22.6382 17.414 24.3735C17.0954 26.1087 16.6583 27.3487 15.0959 29.4718C13.5335 31.5948 13.2932 33.412 13.5262 35.455C13.7593 37.4979 11.6543 39.9324 10.7183 40.932C9.78229 41.9316 7.4405 44.0529 7.10362 47.0281C6.76674 50.0033 7.95584 56.043 10.9568 57.2575C18.2226 60.1963 23.8021 55.7699 27.1636 54.5918C30.5252 53.4137 32.978 52.5507 35.9153 52.4068C38.8525 52.263 43.2757 47.9331 43.5452 43.849C43.7059 41.396 43.1753 38.9471 42.0138 36.7805Z" fill="#1B293B"/>
<path d="M35.5492 20.4897C34.2126 22.2322 34.4985 24.9088 36.7219 27.6109C38.9454 30.313 42.5254 29.0257 45.541 28.7344C48.5565 28.443 52.499 23.1244 53.4404 18.4667C54.3819 13.8091 53.6571 11.3127 49.4943 9.78508C45.3316 8.25741 39.3697 9.66854 34.5313 9.44276C27.841 9.13322 25.3918 7.67656 21.1143 6.16528C17.9603 5.04548 16.7439 4.68496 16.4544 6.02872C16.1648 7.37249 16.3469 9.02579 20.069 12.8186C24.0169 16.8408 30.0025 19.175 31.2153 19.4828C32.4281 19.7905 35.5492 20.4897 35.5492 20.4897Z" fill="#1B293B"/>
<path d="M43.6672 38.0424C43.687 38.6049 43.6559 39.168 43.5743 39.7248C43.2101 42.4979 41.7533 46.1177 39 48.1935C35.6276 50.7244 31.8162 50.2382 28.1397 51.1742C26.7885 51.5219 25.8051 52.2921 24.7016 53.117C22.7914 54.55 19.8396 56.5765 14.7044 56.531C10.762 56.4873 10.0409 52.822 9.42355 51.3617C9.18906 50.7641 9.02112 50.1425 8.92278 49.5081C8.56951 47.3632 8.66967 44.2386 10.9987 42.7237C14.2036 40.6352 15.1961 34.8614 15.1961 34.8614C15.0145 34.0072 15.0508 33.1211 15.3015 32.2845C15.5523 31.448 16.0095 30.688 16.631 30.0745C18.7889 27.8531 18.452 24.3025 19.439 23.3921C19.9106 22.9533 20.7319 23.0006 20.7319 23.0006C19.836 23.9656 20.2202 25.1965 20.2202 25.1965C20.2202 25.1965 21.1307 23.545 24.3429 22.7329C25.6941 22.3924 28.3691 22.7566 28.3691 22.7566C28.3837 23.9693 29.3215 24.9288 29.3215 24.9288C29.3215 24.9288 31.0951 21.584 32.887 20.5753C34.6788 19.5665 35.8734 21.2053 35.8734 21.2053C34.7644 22.2978 35.3071 24.5173 36.4852 27.1521C37.6634 29.7868 40.6935 30.0854 40.6935 30.0854C42.4635 29.9725 43.445 30.9011 43.8675 31.4547C43.9675 31.5755 44.0542 31.7067 44.1261 31.8461C46.965 33.3902 51.0021 33.1626 51.0021 33.1626C49.2358 35.9448 43.6672 38.0424 43.6672 38.0424Z" fill="#838891"/>
<path d="M42.0211 36.7896C42.0393 37.0391 42.2232 41.1596 39.2896 42.9076C37.6252 43.9036 36.234 44.0693 33.4097 43.1443C32.1186 42.7201 31.7052 42.2831 31.7052 42.2831C31.7052 42.2831 29.673 42.8876 26.1931 46.2707C22.8388 49.5317 19.2351 49.7812 18.982 49.7958C16.7713 48.7925 16.4927 47.3741 17.9713 47.5744C18.8818 47.6964 19.9453 46.2998 20.4169 44.6847C22.2379 38.4375 26.1166 42.3468 29.4927 40.2219C33.1347 37.9258 31.474 32.4561 31.474 32.4561C31.0497 32.4561 32.6448 30.4532 34.8519 30.0763C34.8519 30.0763 32.5993 29.2933 31.3046 29.754C31.59 29.2658 31.9658 28.8363 32.4118 28.4885C28.3637 28.9874 23.3815 32.0227 22.4637 35.9339C22.1232 37.3905 20.4242 40.2091 19.6193 42.1629C18.4976 44.8941 16.5073 47.2066 13.8031 47.0409L8.92285 49.5081C9.01884 50.1422 9.18433 50.7638 9.41634 51.3617C10.0409 52.8183 10.762 56.4873 14.6972 56.531C19.8324 56.582 22.7842 54.5499 24.6944 53.1169C25.7979 52.2921 26.7813 51.5219 28.1324 51.1741C31.809 50.2382 35.6203 50.7244 38.9928 48.1934C41.7498 46.1177 43.1938 42.4979 43.5671 39.7248C42.826 37.8457 42.0648 36.857 42.0211 36.7896Z" fill="#50535A"/>
<path d="M27.6354 33.5741C24.5488 36.3782 25.1534 35.8701 24.6763 38.0551C24.6763 38.0551 25.1224 38.9929 27.151 39.0894C29.6731 39.2095 30.9751 36.7478 31.3156 35.1327C31.6798 33.3738 31.5396 31.9262 31.1462 31.309C29.8561 31.8597 28.6689 32.6257 27.6354 33.5741Z" fill="white"/>
<path d="M22.196 34.6648C22.196 34.6648 21.3201 36.613 22.7842 37.7693C22.2901 38.9992 21.9073 40.271 21.6406 41.5693C21.6406 41.5693 23.7621 38.6159 24.2993 38.3028C24.2993 38.3028 27.6299 39.5391 29.917 36.7423C31.3428 34.998 31.4812 32.4561 31.4812 32.4561C31.4812 32.4561 31.7963 31.482 34.8756 30.0799C34.8756 30.0799 31.8946 29.4135 28.4912 31.8316C25.0878 34.2496 23.7675 36.5803 23.7675 36.5803C23.368 36.4152 23.0154 36.154 22.7412 35.8198C22.4671 35.4856 22.2798 35.0888 22.196 34.6648Z" fill="#1B293B"/>
<path d="M25.0422 37.1174C26.0092 35.9211 28.5622 33.6305 29.1012 33.321C29.1121 33.2937 29.7641 34.8833 28.819 36.2015C27.3148 38.3009 25.0422 37.1174 25.0422 37.1174Z" fill="#E2D8A7"/>
<path d="M28.3673 33.9346C28.6149 34.459 28.451 35.0945 27.821 35.5133C27.1909 35.932 26 35.9211 26 35.9211C26.3313 35.5582 26.7041 35.2355 27.1108 34.9597C27.5606 34.6578 27.9812 34.3146 28.3673 33.9346Z" fill="white"/>
<path d="M27.1198 34.9597C26.7556 35.2838 26.732 35.495 27.0069 35.6225C27.2819 35.75 28.0376 35.3494 28.0376 35.3494C27.8016 35.6758 27.4776 35.9284 27.1034 36.0777C25.8451 36.6494 25.501 36.2598 25.501 36.2598C25.631 35.8853 25.8822 35.565 26.2148 35.3494C26.7793 34.9725 27.1198 34.9597 27.1198 34.9597Z" fill="#1B293B"/>
<path d="M48.2452 24.7103C45.9198 27.6418 42.0266 28.3083 40.0362 27.3578C38.0459 26.4073 36.9405 24.1568 37.5833 20.8629L38.4483 20.4605C40.1198 20.4776 41.7774 20.1562 43.3213 19.5155C45.5392 18.5705 46.5208 17.2268 46.5991 17.0993C46.5991 17.0993 46.5772 17.0993 46.5608 17.112C44.3838 17.7193 42.1392 18.0508 39.8796 18.0989C36.4416 18.1645 32.9963 17.7238 29.8478 16.533C22.1997 13.6197 19.4354 9.43182 18.5577 7.57823C18.4137 7.2843 18.2919 6.97998 18.1935 6.66782C18.3756 6.78071 25.8689 11.4839 34.7645 11.5567C43.762 11.6296 49.5727 10.1237 51.37 13.6853C53.1674 17.2468 50.5615 21.777 48.2452 24.7103Z" fill="#A59688"/>
<path d="M34.7554 11.5495C30.7037 11.5167 26.9507 10.5207 24.0371 9.43549C24.9039 9.88929 25.7986 10.2876 26.7158 10.6281C27.7337 10.9777 31.3648 12.7385 39.9762 12.4908C41.0597 12.4599 42.5893 12.4599 43.6746 12.4435C49.1576 12.3652 50.7765 13.7599 51.7525 15.4824C51.8201 15.6059 51.8809 15.7329 51.9346 15.863C51.8921 15.1029 51.695 14.3594 51.3556 13.678C49.5637 10.1165 43.7529 11.6223 34.7554 11.5495Z" fill="white"/>
<path d="M37.6542 22.6492C37.5668 22.6273 37.4721 22.6091 37.3902 22.5909C37.3811 24.9416 38.3954 26.5967 40.0124 27.3542C42.0155 28.3046 45.9106 27.6419 48.2396 24.7085C49.3741 23.2773 50.5669 21.462 51.2861 19.5647C48.0739 23.6706 42.4762 23.9219 37.6542 22.6492Z" fill="#625C58"/>
<path d="M11.6234 47.2211C10.1976 46.9699 9.71501 45.6134 7.72103 46.6749C6.57927 47.2776 5.91643 48.9655 6.88702 50.85C7.85761 52.7346 8.79177 53.3245 10.6801 53.8853C12.5685 54.4462 15.0414 55.1599 17.1137 53.7506C19.186 52.3413 19.6194 49.9597 18.6706 48.3573C17.7219 46.755 14.8466 46.8369 13.876 47.0245C12.9054 47.212 12.3372 47.3413 11.6234 47.2211Z" fill="#1B293B"/>
<path d="M8.6551 50.6188C8.1088 50.0726 8.34007 49.3442 8.80806 49.5427C9.27605 49.7412 9.55284 50.841 9.74405 51.4637C9.93525 52.0864 10.9605 52.3267 11.3119 52.1246C11.6634 51.9225 12.4336 51.0594 13.0874 50.3985C13.7411 49.7375 14.8082 49.8268 15.1123 50.2783C15.4164 50.7299 15.2088 50.3548 15.2088 50.3548C15.2088 50.3548 14.4167 50.4622 14.0434 50.8173C13.6701 51.1723 14.9539 50.8264 14.8902 51.3799C14.8264 51.9334 14.4003 52.5616 14.4003 52.5616C14.4003 52.5616 15.5657 53.0095 16.2941 51.9826C17.0225 50.9557 16.9624 49.692 15.9427 48.8271C14.9229 47.9622 12.1587 48.8872 11.3174 48.7361C10.4761 48.585 9.72584 47.4761 8.7771 48.0933C7.82837 48.7106 7.80106 49.7503 8.09606 50.1581C8.22986 50.3662 8.42531 50.5272 8.6551 50.6188Z" fill="#625C58"/>
<path d="M9.5638 49.0929C9.8934 49.2896 9.96988 49.8595 11.6088 49.8431C12.4537 49.834 13.5153 49.3296 14.3712 49.3442C15.7697 49.3697 16.6748 50.2382 16.5801 51.4673C16.786 51.0205 16.8351 50.5173 16.7194 50.0391C16.6037 49.561 16.3301 49.1359 15.9427 48.8326C14.9211 47.9658 12.1587 48.8926 11.3174 48.7415C10.4761 48.5904 9.72587 47.4815 8.77713 48.0988C7.92309 48.645 7.81929 49.5445 8.0196 50.0161C8.08151 48.8835 9.10491 48.8216 9.5638 49.0929Z" fill="#A59688"/>
<path d="M8.52588 52.6381C9.54564 53.7306 10.0355 53.6068 10.9988 53.5922C12.1799 53.5843 13.357 53.73 14.5005 54.0256C17.0936 54.7284 18.2682 54.4407 19.6503 53.2553C20.9705 52.1246 22.369 50.8883 23.8386 49.0584C25.8271 46.5729 26.5008 45.9848 27.1637 45.1891C28.0032 44.184 28.9446 43.27 29.6475 43.2845C30.0827 43.2955 30.5398 43.7197 30.8494 44.2878C31.6998 45.8537 31.5377 48.0824 30.955 48.5576C29.9899 49.346 29.2214 48.6068 25.4447 50.3602C23.2176 51.3926 20.3805 55.8609 15.9956 55.4221C12.7888 55.1017 12.8999 54.2149 11.0407 54.5117C10.112 54.661 9.03758 54.0474 8.64607 53.543C8.25456 53.0387 8.52588 52.6381 8.52588 52.6381Z" fill="#1B293B"/>
<path d="M27.5588 44.7576C27.5588 44.7576 28.4366 43.5176 29.6821 42.8858C30.9277 42.254 31.7162 42.2867 31.7162 42.2867C31.7162 42.2867 29.897 44.2459 29.2742 45.1563L27.5588 44.7576Z" fill="#1B293B"/>
<path d="M20.1328 63.8598C20.1328 63.8598 23.0956 66.8004 26.845 67.9239C26.845 67.9239 32.6157 60.6624 33.4169 51.846L28.9045 53.472C28.9045 53.472 25.288 61.2469 20.1328 63.8598Z" fill="#1B293B"/>
<path d="M34.9903 51.6075C34.9903 51.6075 35.2343 55.7353 31.9165 65.3019C31.9165 65.3019 36.7112 58.0714 38.4921 52.9349C38.4921 52.9349 38.3318 56.0849 38.0332 58.1734C38.0332 58.1734 43.0664 50.6971 43.4197 43.077C43.4197 43.077 42.8534 45.9903 39.5137 49.0857C38.2064 50.2441 36.663 51.1046 34.9903 51.6075Z" fill="#1B293B"/>
<path d="M36.0264 28.9765C36.793 27.4835 40.2383 24.6248 44.1971 24.5629C48.156 24.5009 51.7433 24.3699 53.3203 23.5013C54.8973 22.6328 55.4818 22.4762 55.4818 22.4762C55.4818 22.4762 55.1886 27.2704 53.3239 29.9416C51.4592 32.6127 49.1848 33.9747 46.3514 33.9801C43.5179 33.9856 43.7911 32.9059 43.7911 32.9059C43.7911 32.9059 40.892 33.5522 37.6816 31.0668C36.9828 30.5003 36.4176 29.7866 36.0264 28.9765Z" fill="#1B293B"/>
<path d="M50.8676 29.734C50.5981 30.029 50.2958 30.3403 49.9571 30.6444C47.994 32.4361 44.1208 33.9674 44.1208 33.9674L42.7551 33.2627C42.7551 33.2627 45.2079 32.5635 46.2932 31.3527C47.3786 30.1418 48.3637 29.1677 48.8572 29.1113C48.8572 29.1113 46.3715 28.4303 44.9949 28.8691L43.6128 29.3152C43.6046 29.0522 43.6505 28.7903 43.7476 28.5457C43.8447 28.3011 43.9909 28.079 44.1773 27.8931C44.1773 27.8931 40.3951 28.3829 40.5881 30.5479C40.3839 30.3512 40.1599 30.1761 39.9198 30.0253C39.6212 29.8542 39.3061 29.4153 39.124 28.403C40.1492 27.5481 41.3342 26.9057 42.61 26.5131C43.8858 26.1205 45.227 25.9855 46.5555 26.116C50.5234 26.5221 53.2312 25.1419 53.2312 25.1419C53.2312 25.1419 53.0509 27.2923 50.8676 29.734Z" fill="#838891"/>
<path d="M39.9198 30.0217C40.1599 30.1725 40.3839 30.3476 40.5881 30.5443C40.3951 28.3793 44.1773 27.8895 44.1773 27.8895C43.9909 28.0754 43.8447 28.2974 43.7476 28.542C43.6505 28.7866 43.6046 29.0485 43.6128 29.3116L44.9967 28.8691C46.3734 28.4303 48.859 29.1113 48.859 29.1113C48.5312 29.1513 47.9831 29.6065 47.3312 30.2566C47.6645 30.2766 47.9977 30.3021 48.3291 30.3385C48.8991 30.4041 49.469 30.4878 50.0372 30.5698C50.3413 30.2893 50.6199 30.0053 50.8676 29.734C53.0528 27.2923 53.2348 25.1382 53.2348 25.1382C53.2348 25.1382 50.527 26.5184 46.5591 26.1124C45.2297 25.9821 43.8876 26.1177 42.6111 26.5113C41.3346 26.9049 40.1492 27.5485 39.124 28.4048C39.3061 29.4117 39.6212 29.8505 39.9198 30.0217Z" fill="#50535A"/>
<path d="M47.617 15.608C47.617 15.608 47.4003 16.3163 46.5699 17.112C44.39 17.72 42.1423 18.0516 39.8796 18.0989C36.4416 18.1645 32.9963 17.7238 29.8478 16.533C22.1997 13.6197 19.4354 9.43182 18.5577 7.57823C18.4137 7.2843 18.2919 6.97998 18.1935 6.66782C18.3355 6.90999 20.0891 10.4333 26.7303 12.5199C38.3846 16.1798 44.758 14.0094 44.758 14.0094C44.758 14.0094 44.1462 15.4879 42.9917 16.4256C44.5654 16.3829 46.124 16.1074 47.617 15.608Z" fill="#625C58"/>
<path d="M24.8511 49.6538C26.581 48.33 29.0138 45.2619 29.4946 44.9688C29.4946 44.9688 29.7113 44.9888 29.8588 45.5551C30.0063 46.1214 29.9717 47.4032 29.582 47.4415C28.1689 47.5798 24.8511 49.6538 24.8511 49.6538Z" fill="#D3D1CA"/>
<path d="M14.6261 33.1881C14.6061 34.3862 14.7172 34.8468 15.5166 34.5938C15.9786 34.457 16.389 34.1849 16.6948 33.8126C16.6948 33.8126 15.7442 36.7988 14.5533 36.5202C13.3624 36.2416 14.6261 33.1881 14.6261 33.1881Z" fill="#1B293B"/>
<path d="M14.8174 46.9244C15.6587 46.9407 18.9456 45.8992 19.9489 44.7703C19.9489 44.7703 19.5283 47.9258 17.4141 47.9586C15.2999 47.9914 14.8174 46.9244 14.8174 46.9244Z" fill="#1B293B"/>
<path d="M48.6676 71.2323C48.6676 71.2323 52.8377 52.0336 48.1577 41.5693C48.1577 41.5693 56.8147 50.8209 54.9464 69.5389L48.6676 71.2323Z" fill="#1B293B"/>
<path d="M50.8674 29.734C53.0526 27.2923 53.2347 25.1382 53.2347 25.1382C53.2347 25.1382 50.5269 26.5184 46.5589 26.1124C44.4264 25.8986 42.2815 26.3754 40.4404 27.4725C43.4815 26.5621 44.7034 26.7642 46.2676 26.9591C48.1147 27.1701 49.9738 27.2571 51.8325 27.2194C51.8325 27.2194 51.9673 27.9296 50.8783 29.7067C50.8783 29.714 50.8692 29.7267 50.8674 29.734Z" fill="white"/>
<path d="M53.4661 67.2993C53.4661 67.2993 57.9329 60.2564 56.6564 49.9669C56.6564 49.9669 60.2984 56.2287 59.9907 62.8693C60.6317 60.2016 61.4177 57.5709 62.3452 54.9888C62.3452 54.9888 63.7601 47.8402 59.3679 39.073C59.3679 39.073 66.1401 44.5518 68.2434 53.8362C68.2434 53.8362 61.1069 67.8383 53.8139 69.3277L53.4661 67.2993Z" fill="#1B293B"/>
<path d="M36.9314 72.5306C36.9314 72.5306 43.5671 58.2662 45.1003 48.3482C45.1003 48.3482 45.1823 59.5299 41.0486 72.3139L36.9314 72.5306Z" fill="#1B293B"/>
<path d="M26.386 14.9871C28.0577 15.0836 30.261 14.7869 31.421 13.5305C31.421 13.5305 30.7746 16.3637 28.4656 16.6259C26.7957 16.8335 26.386 14.9871 26.386 14.9871Z" fill="#1B293B"/>
<path d="M11.3866 27.143C13.0583 27.0374 15.2107 26.4784 16.2104 25.0945C16.2104 25.0945 16.1904 27.7366 13.9323 28.2828C12.2971 28.6779 11.3866 27.143 11.3866 27.143Z" fill="#1B293B"/>
<path d="M7.17651 24.7449C8.38929 24.8141 9.32164 24.947 10.7529 24.0912C10.7529 24.0912 10.6564 25.9248 9.13407 25.9121C7.91401 25.8975 7.17651 24.7449 7.17651 24.7449Z" fill="#1B293B"/>
<path d="M21.229 12.2486C23.5289 12.5964 25.1915 12.1285 25.5757 11.7825C25.5757 11.7825 24.993 13.4012 23.5034 13.3957C23.0622 13.3892 22.6282 13.2826 22.2342 13.0839C21.8402 12.8852 21.4965 12.5996 21.229 12.2486Z" fill="#1B293B"/>
<path d="M32.6775 17.4252C35.5674 16.6842 36.9277 15.1219 37.4685 14.0913C37.4685 14.0913 37.6051 16.7224 35.6002 18.0079C33.9667 19.0567 32.6775 17.4252 32.6775 17.4252Z" fill="#1B293B"/>
<path d="M38.4229 18.352C42.1741 17.4088 44.0333 15.2239 44.7599 14.0094C44.7599 14.0094 44.9529 17.1649 42.3307 18.7162C40.1965 19.9817 38.4229 18.352 38.4229 18.352Z" fill="#1B293B"/>
</g>
</g>
<defs>
<clipPath id="clip0_1_461">
<rect width="72" height="70.5695" fill="white"/>
</clipPath>
</defs>
</svg>
